<svg id="_x33_0" enable-background="new 0 0 64 64" height="512" viewBox="0 0 64 64" width="512" xmlns="http://www.w3.org/2000/svg"><path d="m1 53v10h12 2 2 2 12 2 30v-10z" fill="#ccd1d9"/><path d="m54 42c-3.314 0-6 2.686-6 6s2.686 6 6 6 6-2.686 6-6-2.686-6-6-6zm0 8c-1.105 0-2-.895-2-2s.895-2 2-2 2 .895 2 2-.895 2-2 2z" fill="#838f9b"/><path d="m19 42c-3.314 0-6 2.686-6 6s2.686 6 6 6 6-2.686 6-6-2.686-6-6-6zm0 8c-1.105 0-2-.895-2-2s.895-2 2-2 2 .895 2 2-.895 2-2 2z" fill="#838f9b"/><path d="m55 34c0 6-1 8-1 8-1.48 0-2.83.53-3.87 1.42.27-1.31.87-4.77.87-9.42 0-5-4-8-4-8h.93c.85 0 1.62-.34 2.17-.9l.01-.01c.74.63 4.89 4.35 4.89 8.91z" fill="#fcd770"/><circle cx="42" cy="12" fill="#69d6f4" r="2"/><path d="m50.11 25.09-.01.01c-.55.56-1.32.9-2.17.9h-.93-1-2c-1.1 0-2-.9-2-2l-.04-.17c.99-.23 1.9-.74 2.64-1.48.27-.27.4-.62.4-.97 0-.49-.27-.98-.76-1.23-.08-.04-.17-.08-.26-.1l.02-.05 2.38-.48c1.58-.31 3.21.36 4.1 1.71.34.5.52 1.09.52 1.7 0 .85-.34 1.61-.89 2.16z" fill="#ff826e"/><path d="m47 26s4 3 4 8c0 4.65-.6 8.11-.87 9.42-.8.68-1.43 1.57-1.78 2.58h-4.35s2-4 2-8c0-2.67-1.34-4.45-2.22-5.34-.49-.48-.78-1.13-.78-1.82 0-.54.18-1.08.51-1.51l2.49-3.33z" fill="#aab2bd"/><path d="m16 36h17l.41.19c-1.11 2.32-3.41 4.78-3.41 7.81 0 2 2 2 2 2l-1.99 4.98c-.36.01-.69.02-1.01.02-3 0-4-1-4-1v-2-1.82c0-5.02-6.6-7.28-9.08-10.1z" fill="#fcd770"/><path d="m48 48c0 .66.11 1.3.31 1.89l-.31.11c-7.37 0-13.88.85-17.99.98l1.99-4.98h6 2.39 3.61 4.35c-.23.63-.35 1.3-.35 2z" fill="#fcd770"/><path d="m33 36h-17l-.08.08c-.57-.65-.92-1.33-.92-2.08 0-4 3.1-4 4.93-4h6.07v-.01c3.08.61 6.22 1.93 8.13 3.88l-.13.13c0 .73-.23 1.45-.59 2.19z" fill="#aab2bd"/><path d="m20 16v12c0 1.1-.9 2-2 2h-12c-1.1 0-2-.9-2-2v-12c0-1.1.9-2 2-2h4v4h4v-4h4c1.1 0 2 .9 2 2z" fill="#d3a06c"/><path d="m10 14h4v4h-4z" fill="#fcd770"/><path d="m40 42-.05.15c-.31-.1-.63-.15-.95-.15h-2.99l-.04-4c0-1.59-.7-2.97-1.84-4.13-1.91-1.95-5.05-3.27-8.13-3.88-.23-.05-.46-.09-.69-.13-.96-.16-1.79-.66-2.37-1.37-.59-.71-.94-1.61-.94-2.59 0-.59.13-1.18.38-1.72l.18-.38.44.2h.01l9.38 2.29c.17.04.33.09.49.14 4.1 1.22 7.12 5 7.12 9.47z" fill="#cf9e76"/><path d="m31.18 19.95c.41 1.79 1.38 2.98 2.65 3.57l-.83 2.48-.12.43c-.16-.05-.32-.1-.49-.14l-9.38-2.29h-.01l-.44-.2 4.28-9.32c.35-.76.9-1.38 1.58-1.81.67-.43 1.46-.67 2.29-.67 2.35 0 4.26 1.91 4.26 4.27v1.73c0 .34.09.67.24.95l-.21.05z" fill="#5cd6b3"/><path d="m44.24 20.15c.49.25.76.74.76 1.23 0 .35-.13.7-.4.97-.74.74-1.65 1.25-2.64 1.48-.43.12-.88.17-1.33.17h-4.66c-.77 0-1.49-.15-2.14-.48-1.27-.59-2.24-1.78-2.65-3.57l3.82-.95.21-.05c.34.62 1 1.05 1.76 1.05h6.66c.12 0 .24.02.35.05.09.02.18.06.26.1z" fill="#f0d0b4"/><path d="m37 6.17v1.83c0 1.1-.45 2.1-1.17 2.83-.73.72-1.73 1.17-2.83 1.17-2.21 0-4-1.79-4-4v-2h7.99c.01.06.01.11.01.17z" fill="#f0d0b4"/><path d="m36.99 6h-7.99c0-2.34 2.01-4.21 4.39-3.98 2.02.19 3.53 1.96 3.6 3.98z" fill="#fcd770"/><path d="m58.889 53c1.301-1.272 2.111-3.042 2.111-5 0-3.405-2.445-6.247-5.671-6.87.311-1.25.671-3.478.671-7.13 0-4.174-3.053-7.608-4.558-9.05.345-.598.558-1.282.558-2.02 0-.806-.236-1.586-.684-2.258-.781-1.17-1.988-1.917-3.316-2.143v-2.286c0-1.068-.416-2.072-1.172-2.829l-1.875-1.875c-.223-1.434-1.456-2.539-2.953-2.539-1.654 0-3 1.346-3 3s1.346 3 3 3c.977 0 1.837-.476 2.385-1.201l1.029 1.029c.378.379.586.881.586 1.415v2.338l-2.196.439v.001c-.06-.005-.118-.021-.178-.021h-6.66c-.549 0-.995-.449-.995-1v-1.731c0-1.37-.538-2.609-1.397-3.547 1.983-.664 3.426-2.518 3.426-4.722v-1h2v-2h-2.132c-.482-2.113-2.234-3.772-4.381-3.977-1.399-.132-2.811.331-3.851 1.276s-1.636 2.295-1.636 3.701v2c0 1.233.466 2.349 1.209 3.222-1.423.428-2.632 1.449-3.272 2.839l-4.468 9.703c-.307.666-.469 1.404-.469 2.136 0 1.168.402 2.242 1.071 3.1h-1.256c.113-.314.185-.648.185-1v-2.1-9.9c0-1.654-1.346-3-3-3h-12c-1.654 0-3 1.346-3 3v12c0 1.654 1.346 3 3 3h8.754c-.459.715-.754 1.679-.754 3 0 2.305 2.243 3.869 4.618 5.525.829.578 1.667 1.162 2.427 1.781-.648-.198-1.334-.306-2.045-.306-3.859 0-7 3.14-7 7 0 1.958.81 3.728 2.111 5h-13.111v2h26v-2h-3.111c.512-.501.948-1.079 1.289-1.717.724.349 1.922.717 3.822.717 1.696 0 3.899-.174 6.451-.375 3.441-.272 7.706-.607 12.235-.622.357.748.838 1.424 1.424 1.997h-8.11v2h22v-2zm-16.889-40c-.552 0-1-.449-1-1s.448-1 1-1 1 .449 1 1-.448 1-1 1zm-9.988 32c-.462-.012-1.012-.195-1.012-1 0-1.859 1.05-3.556 2.065-5.197.558-.901 1.092-1.775 1.459-2.664.281.586.444 1.209.444 1.872l.046 3.989h-.014v2c0 .352.072.686.184 1zm-15.658-10c-.222-.335-.354-.668-.354-1 0-2.785 1.63-3 3.933-3h6.049c2.632.552 5.272 1.644 7.004 3.177-.019.266-.077.54-.17.823zm6.777-9.939 9.015 2.197c4.036.991 6.854 4.545 6.854 8.642v5.1h-1.998l-.034-3c0-4.983-5.771-8.176-11.49-9.131-1.436-.239-2.478-1.488-2.478-2.969 0-.283.054-.564.131-.839zm13.869 18.939v-1h2c.802 0 1.615.464 1.935 1.105.043.086.065.182.065.277 0 .341-.275.618-.614.618h-2.386c-.552 0-1-.449-1-1zm5.724-.788c-.362-.727-.982-1.316-1.724-1.705v-5.607c0-4.494-2.764-8.445-6.881-10.095l.334-1.003c.496.13 1.005.198 1.515.198h4.658c.185 0 .368-.012.55-.027.407 1.175 1.512 2.027 2.824 2.027l-1.295 1.726c-.454.607-.705 1.359-.705 2.117 0 .943.38 1.841 1.069 2.53.721.72 1.931 2.279 1.931 4.627 0 2.88-1.13 5.813-1.643 7h-.438c.048-.199.081-.404.081-.618 0-.404-.096-.809-.276-1.17zm1.758-11.255c-.31-.311-.482-.706-.482-1.114 0-.328.108-.654.306-.917l2.194-2.926h.137c.797.701 3.363 3.248 3.363 7 0 4.23-.512 7.459-.792 8.912-.629.593-1.146 1.3-1.523 2.088h-2.164c.622-1.588 1.479-4.269 1.479-7 0-3.069-1.577-5.103-2.518-6.043zm4.619 15.043c.13-.637.384-1.229.732-1.753l1.468 1.468c-.044.093-.082.188-.116.285zm4.899 2c-.552 0-1-.449-1-1s.448-1 1-1 1 .449 1 1-.448 1-1 1zm1 1.816c.098-.035.193-.072.285-.116l1.468 1.468c-.524.348-1.116.602-1.753.732zm3.167-.063-1.468-1.468c.044-.093.082-.188.116-.285h2.083c-.129.637-.383 1.229-.731 1.753zm-1.351-3.753c-.035-.098-.072-.193-.116-.285l1.468-1.468c.348.524.602 1.116.732 1.753zm-1.531-1.699c-.093-.044-.188-.082-.285-.116v-2.083c.637.13 1.229.384 1.753.732zm-2.285-.117c-.098.035-.193.072-.285.116l-1.468-1.468c.524-.348 1.116-.602 1.753-.732zm-1.816 3.816c.035.098.072.193.116.285l-1.468 1.468c-.348-.524-.602-1.116-.732-1.753zm1.531 1.699c.093.044.188.081.285.116v2.083c-.637-.13-1.229-.384-1.753-.732zm1.285-16.699c0 4.008-.459 6.145-.72 7.037-.63.065-1.232.22-1.802.441.26-1.791.522-4.362.522-7.478 0-3.279-1.533-5.748-2.792-7.226.296-.099.577-.225.839-.385 1.282 1.233 3.953 4.21 3.953 7.611zm-4.348-12.219c.228.342.348.739.348 1.149 0 1.142-.929 2.07-2.07 2.07h-3.93c-.365 0-.672-.207-.846-.5.795-.329 1.525-.815 2.152-1.443.537-.539.785-1.31.663-2.062-.02-.121-.063-.235-.101-.35l.704-.141c1.195-.238 2.404.263 3.08 1.277zm-12.686-.781h6.66c.058 0 .114.014.166.04.149.075.191.206.203.277.012.072.014.209-.105.328-.872.874-2.032 1.355-3.264 1.355h-4.658c-1.668 0-2.873-.849-3.499-2.336l2.345-.586c.545.566 1.306.922 2.152.922zm-5.984-17.221c.632-.575 1.448-.848 2.315-.765 1.133.109 2.082.91 2.489 1.986h-5.614c.164-.463.44-.884.81-1.221zm-.982 3.221h6v1c0 1.654-1.346 3-3 3s-3-1.346-3-3zm-2.247 7.898c.531-1.153 1.692-1.898 2.959-1.898 1.797 0 3.259 1.466 3.259 3.269v1.731c0 .076.017.147.022.221l-1.969.492c-.019-.234-.044-.463-.044-.713v-1h-2v1c0 2.934 1.11 4.879 2.647 5.959l-.419 1.256-8.277-2.017zm-16.753.102h2v2h-2zm-6 13v-12c0-.551.448-1 1-1h3v4h6v-4h3c.552 0 1 .449 1 1v12c0 .551-.448 1-1 1h-12c-.552 0-1-.449-1-1zm16.816 19c-.035-.098-.072-.193-.116-.285l1.468-1.468c.348.524.602 1.116.732 1.753zm-1.816 1c0 .551-.448 1-1 1s-1-.449-1-1 .448-1 1-1 1 .449 1 1zm.285-2.699c-.093-.044-.188-.082-.285-.116v-2.083c.637.13 1.229.384 1.753.732zm-2.285-.117c-.098.035-.193.072-.285.116l-1.468-1.468c.524-.348 1.116-.602 1.753-.732zm-1.699 1.531c-.044.093-.082.188-.116.285h-2.083c.13-.637.384-1.229.732-1.753zm-.117 2.285c.035.098.072.193.116.285l-1.468 1.468c-.348-.524-.602-1.116-.732-1.753zm1.531 1.699c.093.044.188.081.285.116v2.083c-.637-.13-1.229-.384-1.753-.732zm2.285.117c.098-.035.193-.072.285-.116l1.468 1.468c-.524.348-1.116.602-1.753.732zm3.167-.063-1.468-1.468c.044-.093.082-.188.116-.285h2.083c-.129.637-.383 1.229-.731 1.753zm2.833-1.289v-3.283c0-3.947-3.459-6.359-6.237-8.296-.428-.299-.848-.593-1.247-.885h13.307c-.149.247-.302.497-.459.75-1.108 1.792-2.364 3.822-2.364 6.25 0 1.446.776 2.278 1.649 2.685l-1.323 3.308c-.105.001-.226.007-.326.007-1.643 0-2.572-.327-3-.536zm9.294.166c-1.379.109-2.641.206-3.779.275l1.162-2.905h14.403c-.047.328-.08.66-.08 1 0 .343.033.678.081 1.008-4.377.041-8.464.36-11.787.622z"/><path d="m37 53h2v2h-2z"/><path d="m1 61h12v2h-12z"/><path d="m19 61h12v2h-12z"/><path d="m15 61h2v2h-2z"/><path d="m33 61h30v2h-30z"/><path d="m29 53h6v2h-6z"/></svg>